<?xml version="1.0" encoding="utf-8"?>
<!-- Generator: Adobe Illustrator 24.1.2, SVG Export Plug-In . SVG Version: 6.00 Build 0)  -->
<svg version="1.1" id="Camada_1" xmlns="http://www.w3.org/2000/svg" xmlns:xlink="http://www.w3.org/1999/xlink" x="0px" y="0px"
	 viewBox="0 0 290 191.2" style="enable-background:new 0 0 290 191.2;" xml:space="preserve">
<style type="text/css">
	.st0{fill-rule:evenodd;clip-rule:evenodd;fill:#BD00FF;}
</style>
<g>
	<path class="st0" d="M45,155c14,13,33,19,55,16c12,5,25,7,37,6c-14,21-67,13-89,11c-18-2-35-4-48-3C12,164,27,158,45,155z"/>
	<path class="st0" d="M245,155c-14,13-33,19-55,16c-12,5-25,7-37,6c14,21,67,13,89,11c18-2,35-4,48-3C278,164,263,158,245,155z"/>
	<path class="st0" d="M53,86c-1-5-1-10-2-15c-9-3-21-4-30-4c4,20,2,35,11,57c10,24,29,40,55,40C63,149,39,115,53,86z"/>
	<path class="st0" d="M162,38c2-4,4-9,7-13c-6-10-16-18-24-25c-8,7-18,15-24,25c3,4,5,9,7,13c5-5,11-9,17-14C151,29,157,33,162,38z"
		/>
	<path class="st0" d="M122,43c-4-12-13-23-24-31c-8,9-13,18-15,29c8,7,16,14,23,22C110,56,116,50,122,43z"/>
	<path class="st0" d="M184,63c7-8,15-15,23-22c-2-11-7-20-15-29c-11,8-20,19-24,31C174,50,180,56,184,63z"/>
	<path class="st0" d="M102,70C91,55,74,42,61,33c-2,15-3,29-2,43c5-5,11-10,19-15c8,4,15,7,22,12L102,70z"/>
	<path class="st0" d="M237,86c1-5,1-10,2-15c9-3,21-4,30-4c-4,20-2,35-11,57c-10,24-29,40-55,40C227,149,251,115,237,86z"/>
	<path class="st0" d="M231,76c1-14,0-28-2-43c-13,9-30,22-41,37l2,3c7-5,14-8,22-12C220,66,226,71,231,76z"/>
	<path class="st0" d="M184,77c-10-18-22-31-39-44c-17,13-29,26-39,44c17,11,31,25,39,43C153,102,167,88,184,77z"/>
	<path class="st0" d="M141,130c-10-28-35-48-62-61c-56,32,5,109,59,100C136,156,137,143,141,130z"/>
	<path class="st0" d="M146,168c56,16,123-66,65-99C175,86,136,124,146,168z"/>
</g>
</svg>
